<?xml version="1.0" encoding="utf-8"?>
<!-- Generator: Adobe Illustrator 21.1.0, SVG Export Plug-In . SVG Version: 6.00 Build 0)  -->
<svg version="1.1"
	 id="svg3152" inkscape:export-filename="/home/svozar/rss2016admin/rss2016-website/header_left.png" inkscape:export-xdpi="70.629997" inkscape:export-ydpi="70.629997" inkscape:version="0.48.4 r9939" sodipodi:docname="header_left.svg" xmlns:cc="http://creativecommons.org/ns#" xmlns:dc="http://purl.org/dc/elements/1.1/" xmlns:inkscape="http://www.inkscape.org/namespaces/inkscape" xmlns:rdf="http://www.w3.org/1999/02/22-rdf-syntax-ns#" xmlns:sodipodi="http://sodipodi.sourceforge.net/DTD/sodipodi-0.dtd" xmlns:svg="http://www.w3.org/2000/svg"
	 xmlns="http://www.w3.org/2000/svg" xmlns:xlink="http://www.w3.org/1999/xlink" x="0px" y="0px" viewBox="0 0 208.1 277.8"
	 style="enable-background:new 0 0 208.1 277.8;" xml:space="preserve">
<style type="text/css">
	.st0{fill:#A31F34;fill-opacity:0.9412;}
</style>
<sodipodi:namedview  bordercolor="#666666" borderopacity="1.0" fit-margin-bottom="60" fit-margin-left="0" fit-margin-right="0" fit-margin-top="10" id="base" inkscape:current-layer="layer1" inkscape:cx="43.478747" inkscape:cy="153.88992" inkscape:document-units="px" inkscape:pageopacity="0.0" inkscape:pageshadow="2" inkscape:window-height="1039" inkscape:window-maximized="0" inkscape:window-width="1920" inkscape:window-x="1920" inkscape:window-y="20" inkscape:zoom="2.8" pagecolor="#ffffff" showgrid="false">
	</sodipodi:namedview>
<g id="layer1" transform="translate(778.34931,55.824192)" inkscape:groupmode="layer" inkscape:label="Layer 1">
	<path id="path8569" inkscape:connector-curvature="0" class="st0" d="M-598.2,23.6c0-0.2,0-0.4,0-0.7c-0.8,0.1-1.7,0.1-2.5,0.2
		c0,0.2,0,0.3,0,0.5C-600.7,23.6-598.2,23.6-598.2,23.6z M-679.3,14.6c-0.2,0-0.3,0-0.5-0.1c-0.1,1.4-0.2,2.8-0.3,4.2
		c0.2,0,0.4,0,0.5,0C-679.5,17.3-679.4,16-679.3,14.6 M-744.6,1c0.1-0.2,0.3-0.5,0.4-0.7c-0.6-0.3-1.2-0.6-1.8-0.9
		c0,0-0.3,0.5-0.3,0.6C-745.7,0.3-745.2,0.7-744.6,1 M-755-6.5c0.8,0.5,1.2,0.9,1.6,1c0.2,0.1,0.5-0.3,0.8-0.4
		c-0.4-0.3-0.7-0.8-1.2-1C-753.9-7-754.3-6.7-755-6.5 M-749-6.7c-0.7-0.4-1.2-0.7-1.6-0.9c-0.1,0-0.4,0.3-0.6,0.5
		c0.4,0.3,0.7,0.7,1.2,0.9C-749.9-6-749.6-6.3-749-6.7 M-676.4,17c0.4-1.9,0.3-2.1-1.5-2.3C-677.5,15.4-677,16-676.4,17
		 M-703.2,111.9c0.3,0,0.6,0,0.9-0.1c-0.1-0.6-0.2-1.3-0.3-1.9c0,0-0.6,0-0.6,0C-703.2,110.6-703.2,111.2-703.2,111.9 M-726.1,143.3
		c-0.1,0.2-0.2,0.4-0.3,0.6c0.7,0.4,1.5,0.8,2.2,1.2c0.1-0.2,0.2-0.4,0.3-0.6C-724.6,144.1-725.4,143.7-726.1,143.3 M-746.5,24.7
		c0-0.2,0-0.4,0-0.6c-0.6-0.1-1.1-0.3-1.7-0.2c-0.2,0-0.2,0.8-0.4,1.6C-747.6,25.1-747.1,24.9-746.5,24.7 M-696.5,22.5
		c0.1-0.2,0.2-0.3,0.3-0.5c-0.8-0.5-1.7-0.9-2.5-1.4c-0.1,0.2-0.2,0.4-0.3,0.5C-698.5,22.2-697.5,22.3-696.5,22.5 M-670.4,16.7
		c-0.2-0.1-0.3-0.1-0.5-0.2c-0.3,0.5-0.8,0.9-0.9,1.5c0,0.2,0.7,0.6,1.4,1C-670.4,19-670.4,16.7-670.4,16.7z M-634.5,144.5
		c-0.2,0-0.4,0.1-0.6,0.1c0,0.5-0.2,1,0,1.4c0.2,0.4,0.8,0.6,1.2,0.9c0.1-0.1,0.2-0.2,0.3-0.4C-633.8,145.8-634.1,145.1-634.5,144.5
		 M-672.4,112c0.1,0,0.3-0.1,0.4-0.1c0.2-0.7,0.5-1.5,0.7-2.2c-0.1-0.1-0.2-0.2-0.2-0.4c-0.4,0.3-1,0.5-1.1,0.9
		C-672.8,110.8-672.5,111.4-672.4,112 M-597.8-5.5c0.2,0.2,0.3,0.5,0.5,0.7c0.8-0.5,1.6-1.1,2.4-1.6c-0.1-0.2-0.3-0.4-0.4-0.6
		C-596.2-6.5-597-6-597.8-5.5 M-757.9,23.5c0,0.3,0,0.5,0,0.8c0.7,0.1,1.4,0.3,2.1,0.4c0.2,0,0.4-0.3,0.7-0.4
		c-0.2-0.2-0.3-0.6-0.5-0.6C-756.4,23.4-757.1,23.5-757.9,23.5 M-744.8-2.6c0.1-0.2,0.3-0.5,0.4-0.7c-0.9-0.5-1.8-1-2.8-1.5
		c-0.1,0.2-0.2,0.5-0.4,0.7C-746.7-3.6-745.8-3.1-744.8-2.6 M-602.4,23.5c0-0.1,0-0.3,0-0.4h-3.2c0,0.1,0,0.3,0,0.4H-602.4z
		 M-678.5,19.7c0,0.2,0.1,0.4,0.1,0.6c0.7,0.5,1.4,0.5,2-0.2c0.2-0.2,0.1-0.6,0.1-0.9C-677,19.3-677.8,19.5-678.5,19.7 M-672.7,18.9
		c-0.2,0.1-0.3,0.2-0.4,0.3c0.1,0.5,0.2,1.2,0.5,1.4c0.6,0.2,1.3,0.1,2,0.1c0-0.2,0.1-0.3,0.1-0.5
		C-671.3,19.7-672.1,19.3-672.7,18.9 M-689.3,114.3c-0.2,0.1-0.4,0.1-0.6,0.2c0.1,0.6,0.1,1.3,0.4,1.9c0.1,0.3,0.9,0.2,1.8,0.4
		C-688.4,115.7-688.8,115-689.3,114.3 M-668.4,160.2c0.1-0.2,0.2-0.3,0.2-0.5c-0.4-0.6-0.9-1.1-1.3-1.7c-0.2,0.1-0.4,0.2-0.5,0.2
		c0.1,0.6,0.1,1.3,0.3,1.8C-669.6,160.3-668.9,160.2-668.4,160.2 M-652.1,114.9c1.3-0.9,1.2-2.1-0.3-3.3
		C-652.3,112.8-652.2,113.7-652.1,114.9 M-603.8-1.1c0.7-0.6,1.3-1.2,1.9-1.7c-0.2-0.2-0.5-0.5-0.6-0.5c-0.7,0.4-1.3,0.9-1.9,1.4
		C-604.4-1.9-604.1-1.5-603.8-1.1 M-670.2,70.9c0.3,0,0.5,0.2,0.8,0.1c0.8-0.1,1.5-0.3,2.2-0.5c-0.1-0.2-0.2-0.6-0.2-0.6
		c-0.9,0.2-1.8,0.4-2.7,0.7C-670.2,70.6-670.2,70.7-670.2,70.9 M-670.6,14.7c-0.1-0.1-0.3-0.3-0.4-0.4c-1,0.4-2.2,0.5-1.9,1.9
		c0.2,0.1,0.3,0.3,0.5,0.4C-671.8,16-671.2,15.4-670.6,14.7 M-754.1-4.6c-0.4,1.5,0.7,1.6,1.4,1.9c0.2,0.1,0.6-0.2,0.9-0.2
		c-0.1-0.3-0.2-0.7-0.4-0.8C-752.8-4.1-753.4-4.3-754.1-4.6 M-719.3,142.1c-1.4-0.5-2.4-0.9-3.8-1.5
		C-722.1,142.4-720.7,142.9-719.3,142.1 M-684.7,20.7c0-0.2,0.1-0.3,0.1-0.5c-0.8-0.3-1.5-0.6-2.3-0.8c-0.2-0.1-0.6,0.3-0.8,0.4
		c0.2,0.3,0.4,0.8,0.7,0.8C-686.3,20.7-685.5,20.7-684.7,20.7 M-742.9-0.1c-0.1,0.1-0.3,0.3-0.4,0.4c0.5,0.6,1,1.2,1.6,1.6
		c0.2,0.2,0.7-0.1,1.1-0.1c-0.1-0.3-0.1-0.8-0.4-1C-741.6,0.4-742.3,0.2-742.9-0.1 M-668.7,76.7c-0.2-0.2-0.4-0.4-0.6-0.5
		c-0.6,0.5-1.2,1.1-1.8,1.6c0.3,0.2,0.6,0.5,0.8,0.7C-669.7,77.9-669.2,77.3-668.7,76.7 M-662.7,19.8c-0.1-0.2-0.1-0.4-0.2-0.7
		c-1.1,0.3-2.1,0.7-3.2,1c0,0.1,0.1,0.3,0.1,0.4C-664.8,20.7-663.5,21.1-662.7,19.8 M-756.7,22c-0.9-1.1-2-0.9-3.5-0.7
		C-759,22.7-757.8,22.3-756.7,22 M-597.8-6.8c-1.8-0.6-2.9,0.1-3.1,1.9C-599.8-5.5-599-6.1-597.8-6.8 M-743.2-2.8
		c-0.1,0.2-0.2,0.3-0.3,0.5c0.8,1.4,1.9,2,3.6,1.6C-741.2-1.5-742.2-2.1-743.2-2.8 M-720.2,145.2c-0.6-1.6-2.3-2.6-3.9-2.2
		C-722.9,143.7-721.7,144.3-720.2,145.2 M-666.1,73c0.1,0.2,0.3,0.4,0.4,0.6c0.8-0.4,1.5-0.7,2.3-1.1c-0.3-0.4-0.5-0.8-0.8-1.2
		C-664.8,72-665.4,72.5-666.1,73 M-682.1,70.5c0-0.3,0.1-0.5,0.1-0.8c-0.9-0.2-1.7-0.5-2.6-0.7c-0.2,0-0.6,0.3-0.6,0.5
		c0,0.2,0.2,0.6,0.4,0.6C-683.8,70.3-683,70.4-682.1,70.5 M-682.7,71.6c0.4,1.2,1.2,1.5,2.2,1.4c0.2,0,0.5-0.8,0.4-1
		C-680.7,71-681.7,71.4-682.7,71.6 M-756.5,18.4c-0.6,0.5-1,0.7-1.4,1c0.4,0.3,0.8,0.8,1.3,0.9c0.4,0,0.9-0.4,1.3-0.7
		C-755.6,19.3-755.9,18.9-756.5,18.4 M-602.7,28.4c-0.9-0.5-1.6-1-2.3-1.3c-0.2-0.1-0.7,0-0.8,0.2c-0.1,0.2,0,0.6,0.1,0.8
		C-605,28.9-604.1,29.1-602.7,28.4 M-647.2,21.4c0-0.2-0.1-0.4-0.1-0.6c-0.8,0-1.7-0.1-2.5-0.1c-0.3,0-0.5,0.4-0.8,0.7
		c0.3,0.2,0.6,0.7,0.8,0.7C-648.9,22-648.1,21.7-647.2,21.4 M-750,24.4c0-0.2,0-0.3,0.1-0.5c-1.3-0.1-2.6-0.3-4.3-0.5
		C-753.4,24.8-751.6,25-750,24.4 M-670.6,158.5c-0.5-0.5-0.8-0.8-1.1-1c-0.4,0.5-0.9,0.9-1,1.5c-0.1,0.3,0.5,0.8,0.8,1.2
		C-671.5,159.6-671.1,159.1-670.6,158.5 M-590.9-4.8c0.2-0.1,0.4-0.2,0.6-0.3c-0.1-0.7,0-1.7-0.4-2.1c-0.3-0.4-1.3-0.1-2-0.2
		c0,0.1-0.1,0.3-0.1,0.4C-592.2-6.2-591.5-5.5-590.9-4.8 M-659,18c-1.1,0.9-1.9,1.5-3,2.4C-659.5,21-658.9,20.5-659,18 M-749.4,22.2
		c-2.2-0.3-4-0.5-6.3-0.8C-754.6,22.6-751.1,23-749.4,22.2 M-607.9,1.2c0.9-0.5,1.8-1,2.6-1.6c0.2-0.1,0.2-0.6,0.1-0.8
		c-0.1-0.2-0.6-0.3-0.8-0.2c-0.8,0.4-1.5,0.9-2.3,1.5c-0.1,0.1-0.2,0.4-0.2,0.7C-608.4,0.9-608.1,1-607.9,1.2 M-684.4,158
		c0,0.1,0,0.3,0,0.4h5.2c0-0.1,0-0.3,0-0.4H-684.4L-684.4,158z M-671.5,72.6c1.5,0.2,3,1.2,4.8-0.1
		C-668.6,71.7-670.1,72.2-671.5,72.6 M-676.5-7.3c-2.2-0.3-5.7,1.4-6.4,3.1C-680.9-5.2-678.7-6.3-676.5-7.3 M-742.6,22.5
		c-2-0.1-3.5-0.2-5.1-0.4C-745.5,24.1-744.6,24.1-742.6,22.5 M-690.5,21.4c-0.1,0.2-0.2,0.3-0.4,0.5c0.4,0.8,0.8,1.7,1.3,2.5
		c0.2,0,0.4,0,0.6,0c0.2-0.8,0.7-1.6,0.4-2.2C-688.6,21.7-689.8,21.6-690.5,21.4 M-684.1,65.8c-0.6,0.5-1.3,0.7-1.3,1
		c0,1.1,0.8,1.3,1.7,1.3c0.4,0,0.8-0.4,1.2-0.7C-683,66.9-683.5,66.4-684.1,65.8 M-747.7,0c0.1-0.2,0.3-0.4,0.4-0.6
		c-1-0.7-1.9-1.4-2.9-2c-0.1-0.1-0.5,0-0.6,0.2c-0.1,0.2-0.1,0.6,0,0.7C-750-0.8-749.1,0-747.7,0 M-668.6,69.1
		c0.8-0.6,1.3-0.9,1.8-1.3c-0.7-0.3-1.4-0.8-2.1-1c-0.2-0.1-0.9,0.6-0.9,0.8C-669.5,68.1-669.1,68.5-668.6,69.1 M-673.7,120.2
		c1.3-0.3,2.4-0.3,2.4-1.6c0-0.4-0.6-1-0.9-1C-673.7,117.6-673.2,119-673.7,120.2 M-746.9-2.1c-1-0.9-2-1.7-3-2.6
		c-0.3-0.3-0.7-0.5-1.1-0.7c-0.2-0.1-0.5,0.1-0.6,0.2c-0.1,0.1-0.1,0.5,0,0.5C-750.2-3.5-748.8-2.4-746.9-2.1 M-605.3,24.6
		c0,0.2,0,0.4-0.1,0.7c1.4,0.3,2.9,0.6,4.3,0.8c0.2,0,0.5-0.3,0.5-0.6c0-0.2-0.2-0.6-0.3-0.6C-602.4,24.8-603.8,24.7-605.3,24.6
		 M-673.6,72.9c0-0.2,0-0.5,0.1-0.7c-1.6-0.1-3.2-0.3-4.8-0.4c-0.2,0-0.5,0.4-0.5,0.4c0.1,0.2,0.3,0.6,0.5,0.6
		C-676.7,72.9-675.1,72.9-673.6,72.9 M-743.3,21.3c-1.2-1.1-4.4-1.5-5.9-0.7C-747.4,21.6-745.5,21.4-743.3,21.3 M-691.7,17.8
		c-0.5,2.2,0.4,3.1,2.6,2.6C-689.5,18.8-690.1,18.2-691.7,17.8 M-662.4,24.7c0.2,0.1,0.4,0.1,0.6,0.2c0.6-0.9,1.3-1.8,1.9-2.6
		c-0.1-0.2-0.2-0.3-0.3-0.5c-0.7,0.1-1.9,0-2.1,0.4C-662.7,22.9-662.4,23.8-662.4,24.7 M-617.2,142.7c-0.1-0.1-0.3-0.1-0.4-0.2
		c-0.9,0.6-1.9,1.1-2.8,1.7c-0.3,0.2-0.3,0.7-0.4,1.1c0.4,0,0.9,0.2,1.2,0c0.8-0.5,1.5-1,2.2-1.6
		C-617.3,143.6-617.3,143.1-617.2,142.7 M-684,4.9c0.2,0,0.4,0,0.6,0c-0.2-2.4,0.4-4.9-0.3-7.3c-0.2,0-0.5,0-0.7,0
		C-684.2,0-684.1,2.5-684,4.9 M-659.9,28.1c0.2-0.1,0.5-0.2,0.7-0.3c-0.1-1.3-0.1-2.5-0.2-3.8c-0.2-0.1-0.4-0.1-0.5-0.2
		c-0.5,0.9-1.2,1.7-1.3,2.6C-661.3,26.9-660.4,27.5-659.9,28.1 M-656,160.3c0-0.2,0-0.4,0.1-0.5c-1.5-0.3-3-0.5-4.6-0.7
		c-0.2,0-0.5,0.4-0.7,0.7c0,0.1,0.3,0.6,0.5,0.6C-659.1,160.3-657.5,160.3-656,160.3 M-678.2,11.8c1.2,0.9,6.3,1,7.7,0H-678.2z
		 M-676.2,74C-676.2,74-676.2,74-676.2,74c-0.7,0-1.3,0-2,0.1c-0.2,0.1-0.5,0.4-0.6,0.7c0,0.1,0.3,0.5,0.6,0.5
		c1.1,0.1,2.3,0.2,3.4,0.2c0.3,0,0.7-0.5,0.8-0.8c0-0.1-0.4-0.6-0.7-0.7C-675.1,74-675.7,74-676.2,74 M-664,18.3
		c-1.2-0.6-1.9-1.1-2.7-1.5c-0.3-0.1-1,0-1,0.1c-0.1,0.7-0.1,1.4,0,2.1c0,0.2,0.7,0.4,1,0.3C-665.9,19.2-665.2,18.8-664,18.3
		 M-728,144.2c-0.1,0.3-0.3,0.5-0.4,0.8c2.6,1.3,5.2,2.6,7.8,4c0.1-0.2,0.2-0.3,0.3-0.5C-723,147.1-725.5,145.7-728,144.2 M-665.2,6
		c0.2,0,0.3,0,0.5,0c0.8-2.8,0.2-5.5,0-8.3c-0.2,0-0.3,0-0.5,0V6L-665.2,6z M-668.4,74.6c0-0.1,0-0.3,0-0.4
		c-1.2-0.1-2.3-0.3-3.5-0.1c-0.3,0-0.6,1.1-0.7,1.7c0,0.2,0.8,0.7,1,0.6C-670.5,75.9-669.5,75.2-668.4,74.6 M-748.1,27
		c1.6,0.2,2.8,0.3,4,0.4c0.3,0,0.6-0.4,1-0.6c-0.2-0.3-0.4-0.7-0.6-0.9C-744.9,25-746.6,25.3-748.1,27 M-672.6,70.7
		c1.5-0.7,2.1-1.7,1.9-2.9c-0.1-0.5-0.9-0.8-1.4-1.2c-0.2,0.4-0.7,0.8-0.7,1.2C-672.9,68.7-672.7,69.6-672.6,70.7 M-686.8,64.9
		c0.1,0.1,0.2,0.2,0.3,0.3c0.8,0,1.7,0.1,2.5,0.1c1,0.1,2,0.2,3,0.2c0.3,0,0.6-0.4,0.9-0.6c-0.2-0.2-0.5-0.6-0.7-0.6
		c-1.6-0.1-3.2-0.2-4.8-0.2C-686,64.2-686.4,64.7-686.8,64.9 M-629.6,147.4c0.6,1,1.1,1.7,1.5,2.4c0.6-0.5,1.6-0.9,1.6-1.4
		c0-0.7-0.1-2-1.4-1.9C-628.4,146.6-628.9,147-629.6,147.4 M-606.8,3.5c1.7,1.2,3.3,0.8,4.9-1C-603.4,1.7-605.5,2.1-606.8,3.5
		 M-623.3,145.6c-2.4,0-3,0.7-2.3,2.1c0.8,1.5,1.6,0.2,2.3-0.1c0.5-0.2,0.7-0.8,1.1-1.2C-622.7,146-623.2,145.7-623.3,145.6
		 M-676.4,65.9c0-0.1,0.1-0.2,0.1-0.3c0.6,0,1.2,0,1.8-0.1c0.4-0.1,0.7-0.5,1.1-0.8c-0.4-0.2-0.7-0.5-1.1-0.5
		c-0.6-0.1-1.2-0.1-1.8,0c-0.9,0.2-1.7,0.4-2.6,0.6C-678.1,65.2-677.2,65.5-676.4,65.9 M-656.6,24.2c0.1,0.2,0.2,0.3,0.3,0.5
		c1.4-0.6,2.8-1.1,4.2-1.8c0.2-0.1,0.4-0.8,0.3-1.2c-0.1-0.3-0.8-0.6-1-0.5C-654.4,21.9-655.7,22.9-656.6,24.2 M-669.2,10.5
		c0-0.2,0-0.3,0-0.5h-10.2v0.5H-669.2L-669.2,10.5z M-676.9,160.3c0-0.2,0-0.4,0-0.6h-8.8c0,0.2,0,0.4,0,0.6
		C-682.8,160.4-679.8,160.4-676.9,160.3 M-681.3,20.3c0.2-1.3,0.3-2.3,0.4-3.7c-1.7,0.7-3,1.3-4.2,1.8c0,0.2,0,0.4,0,0.5
		C-683.9,19.3-682.8,19.8-681.3,20.3 M-678.5,68.4c-0.3-1,0.1-2-1.3-1.9c-0.9,0-1.8,0-1.8,1.3c0,1,1.4,2.8,2,2.4
		C-679,70-678.8,69.1-678.5,68.4 M-743.9,4.6c0.5-0.4,1.2-0.6,1.2-1c0.1-0.4-0.2-1.1-0.6-1.2c-1-0.5-2.1-0.7-3.2-1
		c-0.2-0.1-0.6,0.3-0.8,0.5c-0.1,0.2,0,0.7,0.1,0.8C-746,3.4-745,3.9-743.9,4.6 M-676.1,63.2C-676.1,63.2-676.1,63.2-676.1,63.2
		c0.6-0.1,1.1,0,1.7-0.1c0.4-0.1,0.7-0.4,1-0.7c-0.3-0.3-0.5-0.8-0.9-0.8c-1.2-0.2-2.5-0.3-3.7-0.3c-0.3,0-0.8,0.5-0.8,0.7
		c0,0.4,0.3,0.9,0.6,1C-677.5,63.2-676.8,63.2-676.1,63.2 M-676,60.4L-676,60.4c0.6,0.1,1.1,0.2,1.7,0.1c0.4-0.1,0.8-0.6,1.2-0.8
		c-0.3-0.3-0.6-0.9-1-0.9c-1.3-0.1-2.6-0.2-3.9-0.1c-0.3,0-0.8,0.5-0.8,0.8c0,0.3,0.4,0.8,0.7,0.9C-677.4,60.5-676.7,60.4-676,60.4
		 M-629.8,148.9c-0.5-0.6-1-1.3-1.4-1.9c-0.6,0.5-1.9,1.2-1.8,1.6c0.3,1,0.9,2.4,1.7,2.6C-630.1,151.5-630.2,150.1-629.8,148.9
		 M-756.4-7.1c-0.1-0.2-0.1-0.4-0.2-0.5c-1,0-2,0-3,0c-0.3,0-0.7,0.4-0.7,0.6c-0.1,1.3,0,2.5,0,3.8c0.2,0,0.4,0.1,0.5,0.2
		C-758.7-4.4-757.5-5.8-756.4-7.1 M-663.8,62.2c0.2,2.4,0.3,4.6,0.4,6.7c0.2,0.1,0.3,0.2,0.5,0.2c0.4-0.5,1-1.1,1-1.6
		C-661.8,65.6-661,63.5-663.8,62.2 M-687.3,61.8c-2,0.9-3,5.2-1.7,7.3C-688.2,68.6-686.9,63-687.3,61.8 M-698.8,23.3
		c0.2,2.1,2,3.8,4.2,4.1c1.2,0.2,1.3-0.3,1-1.3C-694,24.6-696.7,23.1-698.8,23.3 M-657.8,28.3c2.5,0.8,5.4-1.2,5.7-3.8
		C-655.5,24.8-657.7,26.2-657.8,28.3 M-672.3,64.4c-0.1,0.2-0.1,0.4-0.2,0.6c0.4,0.2,0.7,0.6,1.1,0.7c1.2,0.2,2.4,0.3,3.6,0.3
		c1.3,0,2,0.4,1.9,1.8c0,0.5,0.4,0.9,0.6,1.4c1.4-3.9,1.1-4.3-2.5-4.6c-0.8-0.1-1.5-0.2-2.3-0.2C-670.7,64.4-671.5,64.4-672.3,64.4
		 M-675.9,82.7c0.9-1.5,1.8-2.9,2.6-4.3c0.5-0.9,0.1-1.6-0.8-1.8c-1-0.2-2,0-2.8,0C-676.6,78.7-676.3,80.6-675.9,82.7 M-647.3,106.5
		c-0.1-0.6-0.1-0.9-0.1-1.2c-0.3-2.1-0.4-2.2-2.3-1.2c-2.4,1.3-2.5,1.5-0.2,3.2c0.6,0.4,1.3,0.6,2,0.9
		C-647.6,107.5-647.4,106.9-647.3,106.5 M-669.4,116.8c-0.6-1.2-0.9-2-1.3-2.8c-0.4-0.9-2.9-1.5-3.7-1c-0.7,0.5-0.8,2.6,0,2.8
		C-672.9,116.3-671.3,116.5-669.4,116.8 M-683,55.4c-1.7-1.9-3.2-3.6-4.7-5.3c-0.1,0.1-0.2,0.1-0.4,0.2c0.3,1.8,0.5,3.6,0.9,5.4
		c0.1,0.3,0.7,0.8,1,0.7C-685,56.2-684,55.8-683,55.4 M-649.7,109.2c-2.6-2.4-3.4-2.6-5.4-1.6c-0.8,0.4-1.1,1-0.7,1.7
		c0.4,0.6,1.1,1.5,1.5,1.4C-652.8,110.4-651.3,109.8-649.7,109.2 M-675.1,21.8c-0.2,0-0.3,0-0.5,0c-0.1,0.4-0.2,0.8-0.2,1.2
		c0,1.8,0,3.6,0,5.4c0,2.5-0.1,4.9-0.1,7.4c0,0.4,0.4,0.8,0.7,1.2c0.2-0.4,0.6-0.8,0.6-1.2c0.1-0.8-0.1-1.6-0.1-2.4
		c0-3.5,0-7-0.1-10.6C-674.9,22.5-675,22.1-675.1,21.8 M-666.6,7.8h-14.8C-680.6,9.2-668.1,9.4-666.6,7.8 M-670.4,111.9
		c0.7,1.4,1.3,2.8,2,4.1c0.5,0.9,1.3,0.7,1.6-0.2c0.5-1.3,0.7-2.8,1-4.2c-1.3-0.1-2.6-0.1-4-0.2C-669.9,111.5-670,111.7-670.4,111.9
		 M-668.4,157.3c1.6,3,2.4,3.5,4.8,3c0.5-0.1,1-0.7,1.4-1.2c0.2-0.2,0.1-0.8-0.2-1.1C-663.6,156.7-666.7,156.4-668.4,157.3
		 M-677.9,68.6c0,2.1,0.2,2.4,1.8,2.4c2.1,0,2.3-0.3,2.4-2.8c0.1-1.7-0.9-1.7-2.1-1.7C-677.8,66.5-677.9,66.6-677.9,68.6
		 M-658.2,23.8c1.6-1.2,3.1-2.3,4.5-3.4c0.2-0.1,0.4-0.5,0.4-0.6c-0.5-0.6-1-1.4-1.6-1.6c-0.9-0.2-2.4-0.2-2.7,0.2
		C-658.5,20.1-658.4,22-658.2,23.8 M-683.5,73.1c-0.8-1.8-1.4-2-4.4-1.5c-1.9,0.3-2.5,1.4-2,3.2c0.3,1.1,0.8,1.4,1.9,0.7
		C-686.6,74.7-685.1,74-683.5,73.1 M-663,75.5c0-1.3-0.3-1.5-1.5-1.2c-2.2,0.5-3.3,1.9-3.9,3.9c-0.3,1,0.1,1.3,1,1.3
		C-665.1,79.6-663.1,77.7-663,75.5 M-688.4,77.2c1.4,1.4,4.7,1.9,6.1,1.1c0.5-0.3,1.2-1,1.2-1.4c-0.1-0.6-0.6-1.4-1.2-1.8
		c-0.6-0.4-1.6-0.6-2.1-0.3C-685.8,75.4-687,76.4-688.4,77.2 M-675.6,55.5c0.2,0,0.3,0,0.5-0.1c0.1-0.5,0.2-0.9,0.2-1.4
		c0.1-3.7,0.2-7.5,0.2-11.2c0-1.3,0.1-2.5,0-3.8c0-0.3-0.5-0.6-0.8-0.9c-0.2,0.3-0.6,0.7-0.6,1c0,1.1,0.2,2.2,0.1,3.3
		c0,3.9-0.1,7.8-0.2,11.7C-676,54.6-675.7,55-675.6,55.5 M-672.5,42.1c-0.1,0-0.1,0-0.2,0c0-0.9,0.1-1.7,0.1-2.6
		c0-0.4-0.4-0.8-0.6-1.2c-0.2,0.4-0.5,0.8-0.5,1.2c-0.1,4.5-0.2,8.9-0.2,13.4c0,0.7,0.4,1.4,0.7,2.1c0.2-0.7,0.7-1.4,0.7-2.1
		C-672.5,49.3-672.5,45.7-672.5,42.1 M-672.4,29.4L-672.4,29.4c0-2.2,0.1-4.4,0-6.7c0-0.4-0.5-0.7-0.7-1c-0.3,0.3-0.6,0.6-0.8,0.9
		c-0.1,0.1,0,0.4,0,0.6c0.1,4.2,0.1,8.5,0.3,12.7c0,0.4,0.4,0.7,0.6,1.1c0.2-0.4,0.7-0.7,0.7-1.1C-672.4,33.8-672.4,31.6-672.4,29.4
		 M-693.2,24c0.6-2.4,0.7-4.3,0.1-6.2c-0.1-0.3-0.8-0.8-1.1-0.7c-1.1,0.3-2.2,0.6-3.2,1.2c-0.9,0.5-0.9,1.2,0.1,1.9
		c0.9,0.6,1.6,1.3,2.4,2C-694.4,22.6-694,23.1-693.2,24 M-678.2,29.3c0,2.1,0,4.2,0,6.4c0,0.4,0.5,0.9,0.7,1.3
		c0.2-0.4,0.6-0.8,0.6-1.2c0.1-4.2,0.2-8.5,0.2-12.7c0-0.5-0.4-1-0.6-1.5c-0.3,0.5-0.8,1-0.8,1.5C-678.3,25.1-678.3,27.2-678.2,29.3
		 M-677,42c0.1,0,0.2,0,0.3,0c0-0.9,0.1-1.7,0-2.6c-0.1-0.5-0.5-0.9-0.8-1.4c-0.2,0.4-0.6,0.9-0.6,1.3c-0.1,4.9-0.2,9.8-0.2,14.7
		c0,0.4,0.5,0.8,0.8,1.2c0.2-0.4,0.6-0.8,0.6-1.2C-677,50.1-677,46.1-677,42 M-704.4,101.2c-0.1,1.9-0.3,3.2-0.2,4.6
		c0,1.4,0.7,2.2,2.3,2.5c1.8,0.3,3.1-0.6,4.4-1.5c0.2-0.1,0-1.1-0.2-1.3c-1.1-1-2.3-2-3.5-2.9C-702.4,102.1-703.2,101.8-704.4,101.2
		 M-669.6,55.3c1.6,0.7,3.2,1.4,4.8,2c0.2,0.1,0.7-0.2,0.8-0.4c0.9-2.7,1.2-5.5,1.3-8.5C-665.1,50.8-667.3,53-669.6,55.3
		 M-685.3,116.9c0.3,0,0.4-0.1,0.6-0.1c1.6-0.3,3.9-3.2,3.7-4.8c0-0.3-0.6-0.8-0.9-0.8c-1.9-0.1-3.8-0.1-5.8,0
		c-1.1,0.1-1.6,0.8-1,1.8c0.7,1.2,1.6,2.2,2.4,3.3C-686,116.7-685.5,116.8-685.3,116.9 M-680,55.9c-2.4-0.1-4.3,1.1-6.3,1.8
		c-0.2,0.1-0.3,0.6-0.3,0.9c0.2,4.3,1,5,5.4,4.6c0.1,0,0.1,0,0.1,0c0.4-0.4,1.1-0.7,1.1-1.1C-680,60.1-680,58.2-680,55.9
		 M-672.2,60.5c0,0.4,0,0.7,0,0.9c-0.2,1.4,0.3,1.9,1.7,1.9c1.3-0.1,2.5,0.1,3.8,0.2c1.1,0.1,1.7-0.3,2-1.4c0.1-0.6,0.1-1.2,0.3-1.8
		c0.4-1.1,0-1.8-1-2.2c-1.8-0.7-3.6-1.3-5.4-2c-0.8-0.3-1.1,0.2-1.1,0.9C-672,58.2-672.1,59.4-672.2,60.5 M-664.4,94.4
		c0.3-4.9,0.7-9.8,1-14.4c-1.9,0.2-3.5,0.3-5.1,0.6c-0.3,0.1-0.8,0.7-0.8,1.1C-669.9,86.7-667.4,90.6-664.4,94.4 M-681.1,37.1
		c-0.6-0.8-1.1-1.3-1.5-1.8c-1.8-2.3-3.6-4.6-5.5-6.8c-0.4-0.5-1-0.9-1.5-1.3c-0.5,0.6-1.5,1.2-1.5,1.9c-0.2,3.6-0.2,7.3-0.3,10.9
		c0,0.1,0.2,0.2,0.2,0.4c1.6-0.6,3.2-1.3,4.8-1.8C-684.8,38-683.1,37.6-681.1,37.1 M-659.8,40.5c0.1-0.4,0.3-0.8,0.3-1.1
		c0.1-3.1,0.1-6.2,0.1-9.2c0-0.3-0.2-0.7-0.5-0.9c-0.8-0.6-1.6-1.2-2.4-1.7c-2.7,3.3-5.3,6.6-8,9.9
		C-666.7,38.5-663.4,39.5-659.8,40.5 M-671.3,36.2c3.4-2.8,5.8-6.2,8-9.6c0.2-0.3,0.1-0.8,0.1-1.1c-0.1-0.9-0.3-1.8-0.3-2.7
		c0-0.8-0.3-1.2-1.2-1.2c-1.8,0-3.6,0-5.4,0c-0.9,0-1.4,0.3-1.4,1.2c0,4.2,0,8.5,0,12.7C-671.5,35.7-671.4,35.9-671.3,36.2
		 M-677.1,133c-0.1,0-0.2,0-0.2,0c0,0.6,0,1.2,0,1.8c0.1,5.9-0.6,11.8-1.8,17.6c-0.5,2.5,0.2,4,2.3,5.6c0.5,0.4,0.9,1,1.3,1.5
		c0.3,0.3,0.7,0.5,1,0.7c0.2-0.3,0.4-0.7,0.6-1c0.4-0.9,0.6-1.9,1.2-2.6c0.8-0.9,1-1.5,0-2.4c-0.4-0.3-0.5-1-0.6-1.5
		c-0.7-3.9-1.4-7.7-2.1-11.6C-676,138.4-676.5,135.7-677.1,133 M-679.4,37c0.1-1.2,0.2-2,0.2-2.7c0-1,0-1.9,0-2.9
		c0-2.9,0.1-5.8,0-8.6c0-0.4-0.7-1.1-1-1.1c-2-0.1-3.9-0.1-5.9,0.1c-0.4,0-1,0.5-1.2,1c-0.4,0.8-0.6,1.7-0.8,2.6
		c-0.1,0.5-0.2,1.1,0.1,1.6C-685.9,30.5-683.1,33.8-679.4,37 M-690.5,95.5c0.2,0.1,0.4,0.1,0.7,0.2c3.8-5.3,7.7-10.5,9.7-17.2
		c-3.1,1.3-6.1,1.4-8,0.5c-1.6-0.8-2.4-0.4-2.6,1.4c-0.1,1.4-0.1,2.7-0.1,4.1C-690.7,88.2-690.6,91.9-690.5,95.5 M-671.5,54.6
		c0.5-0.3,0.8-0.3,0.9-0.5c3.5-3.6,6.9-7.2,10.4-10.8c0.8-0.8,0.1-1.3-0.6-1.6c-2.8-1-5.6-2-8.5-2.8c-2.3-0.7-2.5-0.4-2.5,2
		c0,3.9,0.1,7.9,0.1,11.8C-671.6,53.2-671.5,53.8-671.5,54.6 M-720.7,24.5c0-1.1,0-2.5-1.8-2.9c-5.5-1.2-11-1.8-16.4,0
		c-0.5,0.2-1.2,0.9-1.2,1.4c0,1.2,0.3,2.3,0.5,3.5c0,0.1,0.5,0.2,0.8,0.2c5.3,0.1,10.6,0.2,15.9,0.4
		C-720.9,27.1-720.7,26.9-720.7,24.5 M-736.8,1.1c-0.5,0.6-1.3,1.2-1.8,2c-1.2,1.9-1.2,2,0.8,2.8c5.4,2.4,10.8,4.7,16.2,7
		c0.3,0.1,0.7,0.2,1,0c2-1,2.2-3.6,0.4-4.9c-4-2.9-8.4-4.8-13.1-6.2C-734.2,1.6-735.3,1.4-736.8,1.1 M-652.8,28.6
		c0.6,0,1.2,0.1,1.8,0.1c5.2,0.1,10.5,0.3,15.7,0.4c0.9,0,1.2-0.3,1.3-1.1c0.1-1,0.1-2,0.3-3c0.3-1.3-0.3-1.9-1.5-2.1
		c-2.7-0.5-5.4-1.5-8-1.3c-2.4,0.1-4.7,1.4-7.1,2.2c-0.1,0-0.1,0.1-0.2,0.2C-651.2,25.5-651.9,26.9-652.8,28.6 M-620.8,22.5
		c-2.3,0.4-4.3,0.8-6.4,1.1c-3,0.5-2.9,0.6-3.1,3.6c-0.1,1.4,0.5,1.8,1.7,1.7c3.2-0.2,6.4-0.2,9.5-0.3c2.6-0.1,5.2-0.1,7.7-0.2
		c0.5,0,1.2-0.1,1.5-0.5c1.4-1.8,0.4-4.6-1.8-4.8C-614.7,22.7-617.8,22.7-620.8,22.5 M-674,6.5v0.3c2,0,4,0,6.1,0
		c1.3,0,1.9-0.6,1.9-1.9c0-2.3,0-4.6-0.1-6.8c0-0.6-0.3-1.3-0.7-1.6c-1.2-0.9-2.5-1.7-3.8-2.4c-3.3-1.7-9.4,0.7-11.3,2.6
		c-0.4,0.4-0.6,1.2-0.6,1.8c-0.1,2.1,0,4.2,0,6.4c0,1,0.4,1.7,1.5,1.7C-678.7,6.6-676.4,6.5-674,6.5 M-697.8,27.7
		c-0.9-1.8-1.6-3.3-2.4-4.9c-0.2-0.3-0.4-0.7-0.7-0.8c-2.5-0.7-5-1.7-7.5-1.9c-2.4-0.2-4.8,0.3-7.2,0.5c-0.9,0.1-1.2,0.5-1.2,1.4
		c0,1.2,0,2.4,0,3.6c-0.1,1.4,0.5,2,2,2c4.6,0,9.3,0.1,13.9,0.2C-699.9,27.9-698.8,27.7-697.8,27.7 M-610.1,5
		c-0.5-1-0.9-1.8-1.2-2.7c-0.4-1.1-1-1.3-2.1-1.1c-5.2,1.1-9.9,3-14.3,6c-1.2,0.8-2.4,1.7-3.5,2.6c-0.9,0.7-1,1.4-0.4,2.4
		c0.3,0.4,0.5,0.9,0.7,1.3c0.4,0.8,0.9,1,1.7,0.6c6.1-2.8,12.2-5.7,18.3-8.5C-610.5,5.6-610.3,5.2-610.1,5 M-679.3,46.4
		C-679.3,46.4-679.3,46.4-679.3,46.4c0-2.3,0-4.6,0-7c0-0.8-0.1-1.4-1.2-1.3c-3.5,0.5-6.8,1.2-9.9,3c-1,0.6-1.2,1.3-0.5,2.2
		c1.9,2.7,3.7,5.5,5.8,8.1c0.9,1.1,2.2,2,3.5,2.7c1.8,1,2.2,0.6,2.3-1.4C-679.3,50.7-679.3,48.5-679.3,46.4 M-676.9,125.5
		c0.3-0.8,0.8-1.9,1.2-3.1c0.5-1.4,1-2.8,1.4-4.3c0.1-0.3-0.3-0.8-0.6-1c-1.3-0.7-1.7-4.4-0.3-5c1.8-0.8,1.6-2,1.5-3.3
		c-0.2-1.7-0.5-3.4-0.8-5.1c-0.6-3.8-1.2-7.6-1.7-11.4c-0.1-1.1,0-2.3,0-3.4c-0.5,0.9-0.6,1.8-0.7,2.7c-0.7,5.2-1.5,10.4-3.1,15.4
		c-0.4,1.3-1.4,2.7,0.2,3.9c0.1,0.1,0.1,0.4,0.1,0.6c-0.1,1.7,0.1,3.5-0.4,5.1c-0.6,2,0.4,3.5,1.1,5.1
		C-678.4,123.1-677.6,124.3-676.9,125.5 M-656.4,16.2c1.8,1.2,3.1,2.2,4.5,3.1c0.2,0.1,0.3,0.3,0.5,0.3c2.7,0.1,5.4,0.6,8,0.2
		c2.7-0.4,5.3-1.7,7.9-2.6c1.1-0.4,1.3-1,0.9-2c-0.4-1.2-0.8-2.4-1.2-3.6c-0.3-0.9-0.9-1.2-1.8-1c-5.3,1.2-10.5,2.4-15.8,3.7
		C-654.5,14.6-655.4,15.6-656.4,16.2 M-694.8,15.5c-0.7-1.2-2.1-2.3-4.2-2.8c-4.5-1.1-9-2.2-13.6-3.2c-2.2-0.5-2.4-0.3-2.9,1.8
		c-0.2,0.8-0.5,1.6-0.7,2.5c-0.2,0.8-0.1,1.5,0.8,1.9c3.9,1.7,7.8,3.8,12.3,3.3c0.8-0.1,1.6,0.2,2.4,0.2c0.5,0,1.1,0,1.4-0.3
		C-697.8,17.8-696.4,16.7-694.8,15.5 M-691.3,72.4c-0.6,0.4-1.2,0.6-1.5,1c-0.8,0.9-1.5,1.9-2.1,3c-3.3,6.6-5.8,13.5-7.9,20.6
		c-0.3,1,0,1.7,1,2.2c1.8,0.9,3.5,1.8,5.2,2.8c0.8,0.5,1.4,0.4,1.9-0.4c0.8-1.1,1.8-2.1,2.5-3.2c0.4-0.7,0.8-1.5,0.8-2.3
		c0-4.6-0.2-9.3-0.3-13.9c0-1.6-0.2-3.4,1-4.8c0.1-0.2,0.2-0.5,0.2-0.7C-690.7,75.5-690.9,74.1-691.3,72.4 M-672.1,78.8
		c-2.8,2.7-3.3,6.1-3.4,9.8c-0.1,6.2,1.8,12.2,2.5,18.3c0.1,1.2,0.9,1.6,2.2,1.4c1.2-0.2,2.6-0.3,3.8,0c1.7,0.4,2-0.4,2.1-1.7
		c0.2-2.6,0.4-5.2,0.3-7.9c0-1-0.5-2.2-1-3.1c-2.6-4.3-5.4-8.6-4.8-14C-670.2,80.1-670.7,79.3-672.1,78.8 M-678.5,77.6
		c-0.9,2.2-1.5,4.4-2.6,6.3c-2.5,4.3-5.4,8.4-8.1,12.6c-0.5,0.8-0.9,1.7-0.9,2.6c0.1,2.3,0.4,4.6,0.6,6.9c0.1,1.3,0.8,1.8,2,1.7
		c1.2,0,2.3-0.2,3.5-0.1c2,0.2,2.4-0.1,3.1-2c1.8-4.9,2.5-10,3-15.1c0.3-3.5,0.5-6.9,0.6-10.4C-677.3,79.3-677.4,78.1-678.5,77.6
		 M-663.5,93.7c0.2,1.3,0,2.6,0.5,3.7c1,2.2,2.3,4.2,3.4,6.3c0.5,1,1.3,1.1,2.3,0.7c1.3-0.6,2.7-1.1,4-1.7c4.2-2.1,3.6-1.5,2.1-5.5
		c-3.2-8.8-6.5-17.5-9.8-26.2c-0.2-0.6-0.3-1.4-1.3-1c-0.8,0.4-0.7,0.9-0.3,1.6c0.8,1.4,1.1,3,0.9,4.7
		C-662.4,82.1-662.9,88-663.5,93.7 M-676.4,129.8c0.1,0,0.1,0,0.2,0c0,0.4,0,0.7,0.1,1.1c1.1,6.2,2.1,12.4,3.3,18.6
		c0.8,4,0.9,3.9,4.9,3.6c1-0.1,1.4-0.5,1.3-1.4c-0.1-2.9-0.2-5.8-0.2-8.6c0-4,0.2-8,0.3-12c0.1-3.5,0.2-7.1,0.3-10.6
		c0-1.1-0.6-1.3-1.5-1.1c-1.3,0.4-2.6,0.8-3.9,1.3c-1.9,0.8-3.3,2.2-3.9,4.2C-675.9,126.5-676.1,128.2-676.4,129.8 M-707.7,109.8
		c-2.4,0-4.4,0.6-5.4,3.1c-1.1,2.6-2.3,5.1-3.3,7.6c-1.8,4.3-3.7,8.7-5.3,13.1c-1.3,3.8-1.2,3.8,2.5,5.3c1.1,0.4,1.8,0.3,2.5-0.6
		c1.7-2.2,3.6-4.2,5.1-6.6c3-4.6,5.8-9.4,8.6-14.1c0.6-1.1,0.5-2.1,0-3.2c-0.4-0.8-0.8-1.6-1.1-2.5
		C-704.8,110.2-706.1,109.8-707.7,109.8 M-645.7,112c-0.9,0.4-1.7,0.7-2.5,1.2c-2.7,1.5-4.5,4.8-4.1,7.6c0.5,3.6,2.1,6.9,4.3,9.7
		c3.3,4.2,6.9,8.2,10.3,12.3c0.8,0.9,1.5,1.3,2.6,0.5c0.7-0.5,1.3-1.1,2-1.3c1.7-0.6,1.5-1.6,0.9-2.9c-2.6-5.3-5.3-10.6-7.9-15.9
		C-642,119.6-643.8,115.9-645.7,112 M-678,132.8c-0.1,0-0.2,0-0.3,0c0-1.7-0.1-3.3,0-5c0.4-3.7-1.5-5.8-4.6-7.2
		c-2.9-1.4-6.5,0.9-6.6,4.1c-0.1,4,0.1,8,0.9,11.9c1,5.1,1.8,10.1,2.8,15.2c0.1,0.6,0.5,1.4,1.1,1.7c2.1,1,4.4-0.3,4.6-2.6
		C-679.3,144.8-678.7,138.8-678,132.8 M-755.6-5c-2.3,1.8-4.5,4-4.6,6.7c-0.3,5.6,0,11.3,0.1,17c0,0.4,0.3,0.9,0.5,1.3
		c0.2,0.1,0.3,0.2,0.5,0.3c-0.2-2.8,1.6-2.3,3.1-2.3c2.5,0,5.1,0,7.6,0c2.4,0,4.5,0.5,6.1,2.4c0.7,0.9,1.6,0.9,2.7,0.6
		c3.6-1.1,7.4-1.8,11.2-1.2c2.2,0.3,4.4,0.9,6.6,0.9c2.5,0,5-0.7,7.6-1c1.3-0.2,2.6-0.3,3.9-0.4c0-0.2,0.1-0.5,0.1-0.7
		c-2.4-0.7-4.8-1.3-7.2-2c-0.8-0.2-1.5-0.6-2.2-1c-1.6-1-3-2.2-4.7-3c-3.6-1.7-7.2-3.1-10.9-4.6c-2.4-1-4.8-1.9-7.2-2.7
		c-1.1-0.4-2.3-0.3-3.3-0.8c-2.4-1.2-4.8-2.7-7.1-4c-0.8-0.4-1.7-0.7-1.2-2c0.1-0.2-0.2-0.8-0.5-1C-755.7-3.1-755.9-3.9-755.6-5
		 M-641.4,20.1c0,0.2,0,0.4,0.1,0.5c0.4,0.1,0.8,0.3,1.2,0.4c2.2,0.4,4.4,0.9,6.6,1.1c2.5,0.2,5,0.5,7.5,0.2
		c4.5-0.6,9.1-0.9,13.6-0.3c1.3,0.2,2.5,0.5,3.7-0.5c0.3-0.3,1,0,1.5-0.1c0.4,0,0.9-0.1,1.3-0.2c0.8-0.2,1.6-0.6,2.5-0.5
		c3.8,0.1,7.6,0.2,11.4,0.4c1.3,0.1,1.7-0.3,1.7-1.6c0-6.5,0-13,0-19.4c0-2.4-1.9-3.7-3.3-5.1c-0.6,1.2-1.1,2.1-1.5,3.1
		c-0.1,0.1-0.1,0.3,0,0.4c0.4,1-0.2,1.5-0.9,2c-2.2,1.4-4.3,2.8-6.5,4.2c-1.1,0.7-2.3,1.1-3.6,0.5c-0.3-0.1-0.7-0.1-1,0
		c-1.1,0.5-2.1,1.1-3.2,1.6c-5.1,2.4-10.3,4.7-15.4,7.1c-0.4,0.2-0.9,0.5-1.2,0.9c-1.7,2-4,2.6-6.5,3.1
		C-636.2,18.4-638.8,19.4-641.4,20.1 M-591.2,121.1c-0.2-0.1-0.4-0.3-0.6-0.4c-0.2,0.4-0.4,0.9-0.7,1.3c-4.3,5.5-9.2,10.5-14.4,15.1
		c-4.5,4-8.7,8.3-14,11.1c-7.8,4-15.7,7.6-23.6,11.4c-0.3,0.1-0.6,0.3-0.9,0.5c0.6,0.3,1.2,0.4,1.8,0.4c6.5-0.1,12.9-0.2,19.4-0.2
		c10.4,0,20.8,0,31.3,0c1.2,0,1.7-0.2,1.7-1.6c0-12,0.1-24.1,0.2-36.1C-591.1,122-591.1,121.5-591.2,121.1 M-680.9-7.5h-66.5
		c0,0.1-0.1,0.3-0.1,0.4c0.8,0.4,1.6,0.7,2.4,1.1c1.9,1,4.3,1.4,5.2,3.8c0.7,1.8,2.2,2.6,3.8,2.8c4.1,0.4,7.8,1.9,11.3,3.8
		c3.6,1.9,7.2,3.4,11.3,4.1c4.8,0.9,9.6,2.1,14.4,3.1c2.3,0.5,4.3,1.5,5.7,3.5c0.3,0.4,0.6,0.7,1,0.9c3.1,1.6,6.1,2.5,9.5,0.4
		c2.1-1.3,3.2-3.8,1.8-5.9c-0.8-1.2-1.8-2.3-2.6-3.5c-0.6-0.9-1.2-2-1.3-3.1c-0.2-2-0.3-4.1-0.1-6.1c0.1-1,0.6-2,1.2-2.8
		C-683.2-5.8-682.1-6.4-680.9-7.5 M-667.5-7.4c1.1,1,2,1.6,2.7,2.3c0.5,0.5,1,1.2,1.1,1.9c0.2,1.8,0.1,3.6,0.4,5.4
		c0.4,2.8-0.3,5.2-2.7,6.8c-2,1.4-1.6,3.4-1.5,5.4c0.1,1.6,1.8,1.5,2.6,2.2c0.3,0.2,0.6,0.3,0.9,0.5c1.8,1,5.1,0.7,6.5-0.9
		c1.6-2,3.8-2.7,6.1-3.4c6.7-2,13.9-2,20.2-5.3c0.3-0.2,0.7-0.1,1-0.2c0.6-0.2,1.2-0.3,1.7-0.6c5-3.7,10.8-5.4,16.7-6.8
		c0.9-0.2,1.7-0.9,2.5-1.5c0.7-0.5,1.4-1.2,2.1-1.7c1.9-1.3,3.8-2.5,5.7-3.7c-0.1-0.1-0.1-0.3-0.2-0.4L-667.5-7.4L-667.5-7.4z
		 M-632.8,152c-1.3-2.2-2.3-4.6-3.8-6.5c-2.1-2.8-4.6-5.4-6.9-8c-3.2-3.7-6.7-7-8.5-11.7c-0.9-2.5-1.6-4.9-1.3-7.7
		c0.2-1.9-0.1-3.9-0.2-5.8c-2.8,0-4.5-2.9-3.4-5.6c-0.3-0.1-0.5-0.4-0.8-0.3c-1.7,0.1-2.4-1.1-3-2.3c-0.4-0.9-0.9-1.7-1.3-2.6
		c-0.3-0.5-0.6-0.9-0.9-1.4c-0.5,2.2-0.6,4.2-0.8,6.3c-0.1,1.7-0.1,3.4-2.5,3.5c0,0-0.1,0.2-0.1,0.3c2,1.3,2.2,1.9,1.2,4.4
		c-0.5,1.3-1.1,2.5-1.4,3.2c0.5,1,1.2,1.6,1.2,2.3c0.1,3,0.1,6,0,8.9c-0.1,6.7-0.2,13.4-0.3,20.1c0,1.5,0.1,3-0.1,4.6
		c-0.1,1.6,0.3,2,1.8,1.5c0.5-0.1,1.3-0.1,1.6,0.2c1.6,1.8,3.6,2.6,5.9,2.9c3.1,0.3,6.4,1.1,9.2,0.3c4.5-1.2,8.6-3.6,12.9-5.5
		C-633.8,152.6-633.4,152.3-632.8,152 M-759,118.5c-0.1,0.1-0.3,0.1-0.4,0.2c0,2.2,0,4.3,0,6.5c0,10.7,0.1,21.5,0.1,32.2
		c0,3.1,0,3.1,3.1,3.1c19.3,0,38.6,0,57.8-0.1c0.6,0,1.2-0.1,1.9-0.1c-0.2-0.4-0.4-0.5-0.7-0.6c-7.8-2.3-15.5-4.7-22.7-8.4
		c-4.2-2.1-8.6-4-12.5-6.6c-9.6-6.4-17.5-14.5-24.5-23.6C-757.5,120.2-758.3,119.4-759,118.5 M-701,110.6c-0.2,1.4-0.5,2.7-0.7,3.9
		c-0.1,1,0.1,2-0.2,2.9c-2,5-4.9,9.5-8.1,13.9c-2.2,3-4.4,6-6.9,8.7c-1.6,1.8-2.3,3.6-1.9,5.8c0.1,0.9,0.4,1.8,0.2,2.7
		c-0.2,1,0.2,1.4,1,1.9c6.3,3.4,13.2,5.4,20,7.4c3.2,1,6.5,1.7,9.6,2.5c0.5-0.8,0.7-1.5,1.2-1.8c1.1-0.7,1.3-1.5,0.6-2.6
		c-0.2-0.3-0.2-0.7-0.3-1c-0.6-3.2-1.2-6.4-1.7-9.5c-0.9-5.5-1.8-11-2.5-16.5c-0.3-2.4-0.5-4.8,0.9-7.1c0.6-1,0.7-2.4,0.9-3.2
		c-0.8-0.6-1.7-1-1.8-1.6c-0.2-1.4-1.2-2.9,0.4-4.2c0.1-0.1,0-0.5,0.1-0.7c0.2-0.5,0.3-1.1,0.7-1.4c0.8-0.7,0.7-1.2-0.1-1.8
		c-0.4-0.3-0.8-0.7-0.8-1.2c-0.2-1.9-0.2-3.8-0.3-5.8c0-0.8-0.2-1.5-0.4-2.7c-0.9,1.1-1.6,1.8-2.2,2.6c-0.8,1-1.4,2.3-3,2.3
		c-0.2,0-0.4,0.8-0.5,1.2c-0.1,0.7-0.1,1.4-0.3,2.1c-0.2,0.7-0.8,1.2-1,1.8C-698.7,110.5-699.3,111.4-701,110.6 M-761.6,112.1
		c0.1-0.1,0.3-0.1,0.4-0.2c0-0.6,0-1.2,0-1.8c-0.1-10.3-0.2-20.6-0.3-31c-0.1-14.6-0.2-29.3-0.3-43.9c0-9.6,0-19.1,0-28.7
		c0-0.6-0.1-1.2-0.2-1.9c-0.4,0.3-0.5,0.3-0.6,0.4c-0.3,0.4-0.6,0.8-0.8,1.3c-4.5,8.2-7.7,16.9-10.1,26c-2.1,7.9-3.4,15.8-3.4,24.1
		c0,10.9,1,21.6,4.1,32.1c2.3,8,5.3,15.6,10.2,22.4C-762.3,111.3-761.9,111.7-761.6,112.1 M-589.3,114.5c0.2,0.1,0.4,0.1,0.6,0.2
		c2-3.5,4.1-6.9,6.1-10.5c3.1-5.5,5.6-11.2,6.9-17.4c1.3-6.4,2.4-12.8,3.2-19.3c1.2-9.5,0.9-19.1-0.7-28.6
		c-2.1-12.7-6.8-24.4-13.7-35.3c-0.5-0.7-1-1.4-1.5-2.1c-0.2,0.1-0.3,0.1-0.5,0.2C-589,39.3-589.1,76.9-589.3,114.5 M-597.4-9.2
		c-0.7-0.8-1.1-1.4-1.6-1.8c-1.1-1.1-2.2-2.2-3.4-3.2c-4.2-3.5-8.2-7.3-12.6-10.4c-9.5-6.8-19.9-12-31.2-15.4
		c-7.9-2.4-15.8-4.3-24.1-4.2c-4.2,0-8.3,0.1-12.4,0.4c-4.6,0.3-9.3,0.4-13.9,1.4c-9.9,2.1-19.5,5.2-28.3,10.5
		c-9.7,5.8-18.5,12.6-26,21c-0.4,0.5-0.8,1.1-1.4,1.9L-597.4-9.2L-597.4-9.2z M-704,100.2c0-1.2-0.2-2.1,0-2.8
		c1.3-3.9,2.5-7.8,4.1-11.6c1.8-4.4,4-8.6,6.1-12.9c0.3-0.6,1.2-1.1,2-1.4c0.9-0.3,1.3-0.7,1.2-1.7c-0.1-1.4-0.1-2.7,0-4.1
		c0.1-1.8,0.3-3.5,2.1-4.6c1-0.6,1-1.5,0.8-2.5c-0.4-1.9-0.7-3.8-0.9-5.7c-0.3-2.9-0.8-5.8-2.8-8.2c-0.7-0.9-1.3-2.2-1.3-3.3
		c-0.1-3.7,0-7.4,0.2-11c0.1-1.4-0.4-1.9-1.6-1.9c-0.9,0-1.7,0-2.6,0c-5,0.1-10,0.1-15,0.2c-1.3,0-2.7,0.5-4,0.5
		c-1.2,0-2.4-0.2-3.6-0.5c-0.8-0.2-1.6-0.9-2.4-0.9c-6.1-0.2-12.1-0.3-18.2-0.3c-1.9,0-3.9,0.5-5.8,0.5c-2.4,0-4.7-0.4-7.1-0.5
		c-1.2-0.1-2.5,0.3-2.8-1.5c0-0.2-0.4-0.4-0.6-0.4c-1.6,0-2.8-0.5-3.3-2.2c0,0-0.2,0-0.5,0.1c0,0.6-0.1,1.3-0.1,2
		c0.1,11.5,0.2,23.1,0.3,34.6c0.1,11.6,0.1,23.2,0.1,34.8c0,6.2,0.1,12.3,0.2,18.5c0,0.9,0.3,1.9,0.8,2.5
		c4.8,5.6,9.4,11.4,14.6,16.7c4,4,8.7,7.3,13.1,10.8c0.3,0.3,1.2,0.5,1.3,0.4c1-1.6,2.9-1.4,4.2-2.3c0.5-0.4,0.9-1,1.1-1.6
		c0.5-1.7,0.8-3.6,1.3-5.3c1-2.9,2.1-5.8,3.3-8.6c2.1-5,4.4-10,6.6-15c0.5-1.2,1.5-1.6,2.6-2c1.5-0.6,2.9-1.5,4.6-2.4
		c-0.9-0.7-1.5-1.1-2-1.5c-0.3-0.2-0.8-0.7-0.7-0.8c0.6-1.1,1-2.4,1.9-3.1C-706,100.5-704.7,100.5-704,100.2 M-590.7,26.3
		c-0.7,0.6-1.3,1-1.9,1.5c-0.3,0.2-0.6,0.5-0.7,0.7c-0.2,1-0.9,1.2-1.8,1.2c-3.1,0-6.3,0.1-9.4,0.1c-0.4,0-0.9,0-1.1-0.3
		c-1.1-1-2.2-0.9-3.5-0.4c-0.7,0.3-1.5,0.3-2.2,0.3c-4.5,0.1-9.1,0.2-13.6,0.4c-1.4,0.1-2.9,0.5-4.2,1c-1.3,0.5-2.5,0.6-3.8,0
		c-0.9-0.4-1.8-0.6-2.8-0.7c-1.2-0.1-2.4-0.1-3.6-0.2c-5.9-0.1-11.8-0.1-17.8-0.1c-0.4,0-1,0.7-1,1.1c-0.2,3.5-0.2,7-0.2,10.5
		c0,1.3-0.4,2.3-1.3,3.2c-0.6,0.7-1.2,1.6-1.4,2.6c-0.7,4.1-1.2,8.2-1.9,12.3c-0.2,1,0.1,1.8,0.9,2.4c1.3,0.8,1.6,2,1.6,3.4
		c0,1.3-0.3,2.7,0.1,3.9c1.7,5.3,3.6,10.5,5.6,15.7c1.8,4.7,3.7,9.4,5.5,14.1c0.4,1,0.5,2.2,0.7,3.3c1.8-0.2,2-0.2,2.1,0.7
		c0.1,1.9,0.1,3.8,0.2,5.7c0,0.6-0.1,1.1-0.1,2c1.6-0.7,1.8,0.3,2.2,1.3c0.4,1.1,0.8,2.2,1.3,3.2c4,8,8,16,12,24
		c0.5,0.9,0.5,2.1,0.8,3.5c3.8,1,8,1.6,12.1-1c0.4-0.2,1.2-0.4,1.3-0.3c1.3,1.6,2.2,0.4,3.1-0.4c8-6.8,15.5-14.1,22-22.4
		c0.5-0.7,0.9-1.6,0.9-2.5c0.2-14.3,0.3-28.7,0.3-43c0.1-15.2,0.1-30.4,0.1-45.6C-590.7,27.1-590.7,26.6-590.7,26.3 M-675.3,162
		c-27.7,0-55.4,0-83.1,0c-2.5,0-2.5,0-2.5-2.6c0-11.7-0.1-23.5-0.1-35.2c0-2.5-0.1-5-0.2-7.4c0-0.6-0.2-1.2-0.5-1.7
		c-8.6-10.8-12.5-23.5-15.1-36.7c-1.4-6.8-1.6-13.8-1.4-20.7c0-2.3,0.1-4.7,0.1-7c0.1-7.9,2.4-15.3,4.5-22.9
		c2.5-8.9,6.1-17.3,10.8-25.2c0.9-1.5,1.4-3,1.2-4.7c-0.1-1.9,0-3.7-0.1-5.6c0-1.1,0.5-1.9,1.6-1.6c4.1,1,6.6-1,9.2-4
		c7.1-8,15.5-14.4,24.7-19.9c8.2-4.9,17.1-8,26.3-10.3c3.7-0.9,7.6-1.4,11.4-1.7c5.3-0.4,10.7-0.5,16.1-0.7
		c10-0.3,19.7,1.8,29.2,4.9c10.9,3.6,21,8.9,30.3,15.5c4.1,2.9,7.8,6.4,11.6,9.8c1.9,1.7,3.6,3.5,5.4,5.4c0.8,0.9,1.6,1.2,2.8,1.2
		c4.5,0,4.5,0,4.4,4.4c0,2,0.5,3.5,1.7,5.1c5.2,7.4,9.4,15.4,12,24.1c1.7,5.6,3.4,11.3,4.1,17.1c0.8,6.9,0.7,13.8,0.6,20.8
		c-0.2,8.7-1.9,17.2-3.8,25.6c-1.4,6.4-4,12.4-7.4,18c-2.4,3.9-4.9,7.8-7.3,11.7c-0.4,0.7-0.6,1.6-0.6,2.4
		c-0.1,13.1-0.1,26.1-0.1,39.2c0,2.6,0,2.5-2.5,2.5C-619.8,161.9-647.5,161.9-675.3,162L-675.3,162L-675.3,162z"/>
</g>
</svg>
