<?xml version="1.0" encoding="utf-8"?>
<!-- Generator: Adobe Illustrator 21.1.0, SVG Export Plug-In . SVG Version: 6.00 Build 0)  -->
<svg version="1.1"
	 id="svg3051" inkscape:export-filename="/home/svozar/rss2016admin/rss2016-website/header_right.png" inkscape:export-xdpi="70.629997" inkscape:export-ydpi="70.629997" inkscape:version="0.48.4 r9939" sodipodi:docname="header_right.svg" xmlns:cc="http://creativecommons.org/ns#" xmlns:dc="http://purl.org/dc/elements/1.1/" xmlns:inkscape="http://www.inkscape.org/namespaces/inkscape" xmlns:rdf="http://www.w3.org/1999/02/22-rdf-syntax-ns#" xmlns:sodipodi="http://sodipodi.sourceforge.net/DTD/sodipodi-0.dtd" xmlns:svg="http://www.w3.org/2000/svg"
	 xmlns="http://www.w3.org/2000/svg" xmlns:xlink="http://www.w3.org/1999/xlink" x="0px" y="0px" viewBox="0 0 937.6 362.5"
	 style="enable-background:new 0 0 937.6 362.5;" xml:space="preserve">
<style type="text/css">
	.st0{fill:#A31F34;}
	.st1{font-family:'ArialMT';}
	.st2{font-size:32px;}
</style>
<sodipodi:namedview  bordercolor="#666666" borderopacity="1.0" fit-margin-bottom="10" fit-margin-left="0" fit-margin-right="0" fit-margin-top="20" id="base" inkscape:current-layer="layer1" inkscape:cx="676.65576" inkscape:cy="189.09745" inkscape:document-units="px" inkscape:pageopacity="0.0" inkscape:pageshadow="2" inkscape:window-height="1039" inkscape:window-maximized="0" inkscape:window-width="1920" inkscape:window-x="1920" inkscape:window-y="20" inkscape:zoom="0.98994949" pagecolor="#ffffff" showgrid="false">
	</sodipodi:namedview>
<g id="layer1" transform="translate(-252.62456,-924.44056)" inkscape:groupmode="layer" inkscape:label="Layer 1">
	<text transform="matrix(1 0 0 1 642.038 1267.9561)" class="st0 st1 st2">Massachusetts Institute of Technology</text>
	<text transform="matrix(1 0 0 1 254.8042 1267.9563)" class="st0 st1 st2">July 12-16, 2017</text>
	<path id="path19951" inkscape:connector-curvature="0" class="st0" d="M254,1113.4c-0.1-0.2-0.1-38.2,0-84.6l0.1-84.3l22.1-0.1
		c22.5-0.1,32,0.1,36.9,0.7c17.7,2.2,29.8,8.8,37.5,20.3c3.6,5.4,6.4,13.7,7.3,21.8c0.4,3.7,0.4,13.2-0.1,16.7
		c-1.3,9.5-4,16.7-8.4,22.4c-2.2,2.9-5.6,5.9-8.8,8c-1.7,1.1-7,3.8-7.5,3.8c-0.1,0-0.3,0.1-0.3,0.1c0,0.1,7.1,17,15.8,37.6
		c8.7,20.6,15.8,37.6,15.8,37.7s-6,0.2-17.3,0.2h-17.3l-14-34.4l-14-34.4l-7.8-0.1l-7.8-0.1v34.4v34.4h-16.1
		C257.5,1113.7,254.1,1113.7,254,1113.4L254,1113.4z M310.2,1017.3c2.9-0.7,4.4-1.3,6.4-2.4c4.8-2.8,7.7-7.6,8.8-14.4
		c0.4-2.6,0.5-8.4,0.1-11.1c-1.2-8.5-5.5-14.2-12.6-16.5c-3.8-1.3-4.5-1.3-16-1.4l-10.7-0.1v23.4v23.4l10.8-0.1
		C307.7,1017.9,307.8,1017.8,310.2,1017.3L310.2,1017.3z"/>
	<path id="path19953" inkscape:connector-curvature="0" class="st0" d="M427,1118.2c-22.4-2.2-36-12.4-42.3-31.7
		c-3-9.3-3-9.2-3-55.4c0-38.3,0.1-42,0.8-45.8c3.1-15.3,9.2-25.5,19.5-32.4c10.6-7.1,28.9-10,46-7.1c23.1,3.8,36.3,18.5,39.4,43.7
		c1,8,1,76.4,0,84.3c-3.1,25.2-16.2,39.7-39.5,43.7C443,1118.3,432.1,1118.7,427,1118.2L427,1118.2z M442,1089
		c6.7-1.4,10.6-5.4,12.7-13.2c0.8-2.7,0.8-6,0.8-44c0-43.9,0-43.6-2.3-48.9c-1.5-3.3-4.8-6.5-8.1-7.8c-5.8-2.2-14.8-2.2-20.6-0.1
		c-4.7,1.8-8,5.8-9.7,11.9c-0.7,2.7-0.8,6.2-0.8,44.6c0,38.5,0.1,41.9,0.8,44.6c2.2,8.1,6.9,12.1,15.4,13.2
		C433.4,1089.9,438.8,1089.7,442,1089z"/>
	<path id="path19955" inkscape:connector-curvature="0" class="st0" d="M516.5,1115.8c-0.1-0.3-0.2-38.4-0.1-84.7l0.1-84.1h26.7
		c28.3,0,31.6,0.2,40.1,2.3c17.4,4.2,28.3,14.1,31.9,29c1.9,7.9,1.7,18-0.6,24.8c-2.6,7.8-8.4,15.6-14.9,19.9
		c-4.1,2.8-4.1,2.5-0.6,4.9c14.8,10.2,19.7,18,21.1,33.8c1,10.8-0.6,20.6-4.9,29.3c-7.4,15.2-22,23.2-45.1,24.8
		C560,1116.6,516.8,1116.5,516.5,1115.8L516.5,1115.8z M570.8,1088.4c8.6-2.4,13.6-6.9,16.1-14.8c0.9-2.8,1.1-4.4,1.1-8.7
		c0-8.1-1.8-12.8-6.7-17.2c-5.2-4.8-10.8-6.4-23.4-6.8l-8.8-0.3v24.5v24.5l9.5-0.2C565.3,1089.2,568.9,1088.9,570.8,1088.4
		L570.8,1088.4z M567,1013.2c9.3-2,15.4-7.7,16.9-15.9c0.7-4-0.1-10.2-1.9-13.5c-1.3-2.5-4.2-5.3-6.8-6.7c-4.2-2.3-7-2.8-16.9-3.1
		l-9-0.3v20.1v20.1h7.3C561.2,1013.8,564.8,1013.6,567,1013.2L567,1013.2z"/>
	<path id="path19957" inkscape:connector-curvature="0" class="st0" d="M693.8,1118.4c-16-1.6-25.8-5.6-33.8-13.9
		c-7.7-8-11.9-18.4-13.4-33.6c-0.6-6.3-0.6-72.3,0-78.5c2.7-27.4,15.5-42.3,39.9-46.7c5.6-1,19.7-1.1,24.8-0.3
		c11.8,2.1,19.7,5.6,26.4,11.7c9.1,8.4,13.9,20.4,15.1,37.4c0.6,8.7,0.6,65.3,0,74c-2,29.2-15.5,45.2-41.4,49.1
		C707.8,1118.3,696.8,1118.7,693.8,1118.4L693.8,1118.4L693.8,1118.4z M707.7,1088.7c3.6-1,5.5-2.1,7.7-4.5c2.3-2.5,3.5-5,4.4-9.2
		c1-4.5,1-82.3,0-86.8c-1.9-9-6.9-13.4-16.2-14.5c-8.5-1-16.7,1.3-20,5.4c-1.9,2.4-3.5,6.2-4.2,9.9c-0.9,4.5-0.9,80.6,0,85.1
		c1.3,6.8,4.3,11.2,9.4,13.6C693.5,1089.9,701.9,1090.4,707.7,1088.7L707.7,1088.7L707.7,1088.7z"/>
	<path id="path19959" inkscape:connector-curvature="0" class="st0" d="M807.1,1045.8v-70.3h-19h-19v-14.2v-14.2h54.1h54.1v14.2
		v14.2l-18.9,0.2l-18.9,0.2l-0.2,70.1l-0.2,70.1H823h-16.1L807.1,1045.8L807.1,1045.8z"/>
	<path id="path19961" inkscape:connector-curvature="0" class="st0" d="M896.7,1031.6v-84.4h16.4h16.4v84.4v84.4h-16.4h-16.4V1031.6
		z"/>
	<path id="path19963" inkscape:connector-curvature="0" class="st0" d="M998.6,1117.9c-7.6-1-16.2-4.1-21.6-7.7
		c-6.4-4.3-10.8-9.3-14.2-16.4c-6.2-12.7-7-21.2-6.5-68.9c0.3-36.2,0.5-38.6,3.4-48.1c0.6-1.9,2.3-5.9,3.7-8.7
		c3.1-6,9.7-13,15.4-16.3c10.5-6.2,27.5-8.6,43.1-6.3c25.6,3.9,39.5,20.5,41,48.8l0.4,7.6h-16.2h-16.2v-3.4c0-9.3-2.4-17.1-6.2-20.5
		c-3.3-2.9-6.4-4-12.9-4.3C999,973,992.6,977,990,987.6c-0.9,3.8-1,9.1-0.9,45.6c0.2,46.5,0.1,45.5,5.1,50.9c3.8,4.1,7,5.1,16,5.1
		c6.7,0,7.7-0.2,10.6-1.7c3.9-2,7-5.9,8.4-10.5c0.6-2.1,1.2-7,1.4-12.9l0.4-9.5h16.1h16.1l-0.4,10.8c-0.3,8.7-0.7,12-2,17.1
		c-6,23.2-21.8,34.9-48.4,35.6C1007.4,1118.5,1001.2,1118.3,998.6,1117.9L998.6,1117.9L998.6,1117.9z"/>
	<path id="path19965" inkscape:connector-curvature="0" class="st0" d="M1126.9,1118c-17.1-2.6-30.7-12.7-39.1-29
		c-3.2-6.2-7.1-17.4-6.4-18.1c0.3-0.2,7.2-1.8,15.3-3.5c8.2-1.7,15.1-3.2,15.5-3.4c0.4-0.2,1.2,1.5,1.8,4.1
		c2.5,10,8.6,18.5,15.6,21.6c6.4,2.8,15.3,2,20.3-1.9c7.2-5.5,9.6-16.5,5.4-24.9c-3.4-6.9-9.5-11.7-28.3-22.3
		c-19.9-11.2-26.9-16.3-33-24.2c-6.5-8.4-8.3-14.2-8.2-25.8c0.1-14.5,3.7-24,12.4-32.6c5.9-5.8,11.6-9,20.5-11.4
		c5.5-1.5,7.6-1.7,16.9-1.7c12.6,0,16.5,0.7,26.1,5.4c9.8,4.7,16.9,11.9,22.1,22.2c1.9,3.8,4.8,12.6,4.4,13.1
		c-0.7,0.7-28.5,8.4-28.8,8c-0.2-0.2-1.1-2-1.8-4c-3-7.8-7.3-13.2-12.5-16c-2.9-1.5-4-1.7-9.4-1.7c-5.1,0-6.6,0.2-8.8,1.4
		c-5.5,2.9-8.6,8.8-8.6,16c0,8.8,4.5,13.1,26.4,25.1c19,10.4,25.9,15.3,32.9,23.3c7.3,8.3,11.1,16.8,12.2,26.9
		c2.7,26.5-12.2,46.7-38.3,52.3C1146,1118.3,1132.3,1118.8,1126.9,1118L1126.9,1118L1126.9,1118z"/>
	<path id="path19967" inkscape:connector-curvature="0" class="st0" d="M1159.8,1209.9c-6.1-2-10.8-6.4-13.8-12.9s-3.2-6.2,4.4-7.8
		c3.6-0.8,6.7-1.2,6.8-1c0.1,0.2,0.4,1.3,0.7,2.3c1.2,5,5.2,8.7,9.6,8.7c5,0,8.2-3.2,8.2-8.2c0-3.9-2.7-7-9.3-10.8
		c-10.7-6.2-15.4-9.5-17.6-12.7c-2.9-4.2-3.8-8.8-2.8-14.3c1.7-9.9,8.9-15.3,20.6-15.3c9.5,0,16.2,3.7,19.9,11.1
		c1.1,2.2,2,4.5,2,5.1c0,0.8-1.5,1.5-5.8,2.8c-3.2,0.9-5.9,1.7-6.1,1.7s-0.7-1.1-1.3-2.4c-2.1-5.3-4.8-7-10.4-6.6
		c-3,0.2-5.5,3.3-5.5,6.8c0,3.7,1.9,5.6,9.8,10.1c8,4.5,12.8,7.8,14.9,10.3c4.3,5.1,6,11.3,4.8,17.6c-1.3,7.2-4.6,11.3-11.5,14.4
		C1173.4,1210.7,1164.2,1211.3,1159.8,1209.9L1159.8,1209.9L1159.8,1209.9z"/>
	<path id="path19969" inkscape:connector-curvature="0" class="st0" d="M1072,1174.4v-35.8h9.6h9.6l6.1,23.2
		c3.3,12.7,6.2,22.8,6.3,22.4s2.9-10.8,6.2-23l5.9-22.2h9.6h9.6v35.4v35.4h-5.8h-5.8l-0.3-27.1l-0.3-27.1l-6.7,26.1
		c-3.7,14.4-7,26.6-7.3,27.3c-0.5,1-1.3,1.1-5.5,1l-4.9-0.2l-7.1-27.5l-7.1-27.5l-0.2,27.6l-0.2,27.6h-5.8h-5.8L1072,1174.4
		L1072,1174.4z"/>
	<path id="path19971" inkscape:connector-curvature="0" class="st0" d="M1023,1174.4v-35.8h18.7h18.7v6.1v6.1h-11.9h-11.9v8.1v8.1h9
		h9v6.1v6.1h-9h-9l0.2,9.2l0.2,9.2l12.1,0.2l12.1,0.2v6.1v6.1h-19h-19v-35.8H1023z"/>
	<path id="path19973" inkscape:connector-curvature="0" class="st0" d="M986.7,1209.8c-0.2-0.2-0.5-13.6-0.5-29.7v-29.2h-7.7h-7.7
		v-6.1v-6.1h22.6h22.6v6.1v6.1h-7.7h-7.7l-0.2,29.5l-0.2,29.5l-6.5,0.2C990.1,1210.1,987,1210,986.7,1209.8L986.7,1209.8
		L986.7,1209.8z"/>
	<path id="path19975" inkscape:connector-curvature="0" class="st0" d="M937,1210.2c-3.6-0.9-7.1-2.9-10.2-6
		c-3.2-3.2-6.2-8.8-6.4-11.9c-0.1-1.7,0-1.8,6.2-3.2l6.3-1.4l0.6,1.7c1.5,4.2,2.1,5.2,4.2,7.2c2,2,2.6,2.2,6.1,2.2
		c3.2,0,4.1-0.2,5.5-1.7c2.2-2.2,2.9-5.5,1.9-8.6c-1.1-3.2-2.9-5-8.3-8.2c-2.5-1.5-6.3-3.7-8.4-5c-4.8-2.8-8.4-6-10.6-9.4
		c-1.5-2.3-1.7-3.2-1.7-9c0-7.2,1-9.9,4.9-13.9c3.8-3.8,7-4.8,15.7-4.8c7.4,0,7.9,0.1,11.2,1.9c4.4,2.4,8.1,6.6,9.8,11.1
		c0.7,2,1.3,3.6,1.1,3.7c-0.2,0.2-11.9,3.5-12.3,3.5c-0.2,0-0.5-0.7-0.7-1.5s-1.2-2.7-2.3-4.2c-2.3-3.2-5.5-4.4-9.2-3.3
		c-2.8,0.8-4.3,2.7-4.8,6.3c-0.5,3.6,1.9,6,11.4,11.4c4.4,2.5,9.4,5.9,11.3,7.6c12.1,11,8.5,29.9-6.7,34.6
		C947.4,1210.8,940.8,1211.1,937,1210.2L937,1210.2L937,1210.2z"/>
	<path id="path19977" inkscape:connector-curvature="0" class="st0" d="M884.9,1209.8c-0.2-0.2-0.5-7-0.5-14.9v-14.5l-9.3-20.4
		c-5.1-11.2-9.3-20.6-9.3-20.9s3.2-0.4,7.2-0.3l7.2,0.2l5.7,13.5c3.1,7.4,5.8,13.8,5.9,14.1c0.1,0.3,2.8-5.9,5.9-13.7l5.7-14.2h7.3
		h7.3l-0.6,1.5c-0.3,0.8-4.6,10-9.5,20.5l-8.9,19l-0.3,15.1l-0.3,15.1l-6.5,0.2C888.2,1210.1,885.1,1210,884.9,1209.8L884.9,1209.8
		L884.9,1209.8z"/>
	<path id="path19979" inkscape:connector-curvature="0" class="st0" d="M833.7,1209.9c-6-1.9-10.8-6.3-13.8-12.8s-3.2-6.2,4.5-7.9
		c3.7-0.8,6.8-1.4,6.8-1.3s0.4,1.4,0.9,2.9c1.1,3.8,4.7,7.7,7.6,8.2c5.4,1,9.9-2.4,9.9-7.7c0-4.8-1.9-6.7-15.8-14.9
		c-7.6-4.5-10.3-7-12.4-11.1c-3.1-6.3-2.3-14.8,1.9-20.2c2.8-3.7,7.5-6.2,13.1-7c11.8-1.7,21.7,3.6,25.4,13.3c0.7,2,1.3,3.6,1.1,3.7
		c-0.3,0.2-11.7,3.5-12.2,3.5c-0.2,0-0.9-1.1-1.4-2.5s-1.9-3.4-3-4.5c-1.7-1.7-2.5-2-5.2-2c-3.9,0-5.4,0.7-6.7,3.2
		c-2.5,4.8-0.3,8.3,7.8,12.8c12.5,7,17.2,10.9,19.7,16.6c3.9,8.7,1.1,19.4-6.5,24.7C850.5,1210.4,840,1211.9,833.7,1209.9
		L833.7,1209.9L833.7,1209.9z"/>
	<path id="path19981" inkscape:connector-curvature="0" class="st0" d="M740.7,1174.4v-35.8H752c17.2,0,23.4,2,28,8.9
		c3.8,5.7,4.2,8.4,4.2,26.2c0,20.5-0.9,24.6-6.6,30.1c-5,4.8-11.6,6.3-28.1,6.3h-8.9L740.7,1174.4L740.7,1174.4z M765.5,1196.1
		c1.1-0.6,2.5-2.1,3.2-3.3c1.2-2.1,1.3-3.3,1.3-18.7c0-15-0.1-16.6-1.2-18.4c-1.8-3-4.5-4.3-9.9-4.6l-4.7-0.3v23.7v23.7l4.7-0.5
		C761.5,1197.4,764.4,1196.7,765.5,1196.1z"/>
	<path id="path19983" inkscape:connector-curvature="0" class="st0" d="M682.5,1209.8c-0.2-0.2-0.5-16.4-0.5-35.8v-35.3h7.6h7.6
		l9.5,21.1l9.5,21.1v-21.1v-21.1h6.1h6.1v35.8v35.8H722h-6.4l-10.2-22.6l-10.2-22.6l-0.3,22.4l-0.3,22.4l-5.8,0.2
		C685.6,1210.1,682.8,1210,682.5,1209.8L682.5,1209.8L682.5,1209.8z"/>
	<path id="path19985" inkscape:connector-curvature="0" class="st0" d="M623.3,1209.9c-0.2-0.2,3.6-16.3,8.4-35.8l8.8-35.4h8.8
		c8.6,0,8.9,0,9.2,1.4c0.2,0.8,4,16.5,8.4,34.9s8,33.8,8,34.3c0,0.7-1.3,0.9-6.4,0.9h-6.4l-1.8-7.7l-1.8-7.7h-9.2h-9.2l-1,3.4
		c-0.5,1.9-1.3,4.8-1.7,6.6c-1.3,5.6-1.2,5.5-7.9,5.5C626.3,1210.2,623.5,1210,623.3,1209.9L623.3,1209.9L623.3,1209.9z
		 M655.5,1181.7c-0.2-0.4-1.6-6.5-3.1-13.5s-3-12.7-3.2-12.7s-1.6,5.6-3.2,12.4c-1.6,6.8-3,12.9-3.1,13.5c-0.3,1,0.3,1.1,6.3,1.1
		C654.2,1182.5,655.7,1182.3,655.5,1181.7L655.5,1181.7z"/>
	<path id="path19987" inkscape:connector-curvature="0" class="st0" d="M553.8,1174.4v-35.8h18.7h18.7v6.1v6.1h-11.9h-11.9v8.1v8.1
		h9h9v6.1v6.1h-9h-9l0.2,9.2l0.2,9.2l12.1,0.2l12.1,0.2v6.1v6.1h-19h-19v-35.8H553.8z"/>
	<path id="path19989" inkscape:connector-curvature="0" class="st0" d="M511.5,1209.5c-7.5-2.5-11.6-7.8-13.1-16.8
		c-0.8-5.2-0.9-31.1,0-36.9c1.7-12,8.9-17.9,21.8-17.9c9.5,0,15.7,2.8,19.1,8.7c2,3.5,3.5,8.7,3.5,12.4v2.7h-6.7h-6.7l-0.4-3.3
		c-0.6-4.2-1.9-6.9-4-7.7c-2.2-0.8-7.6-0.8-9.5,0.1c-3.3,1.5-3.6,3.3-3.6,23.6c0,18.3,0,18.7,1.5,20.8c1.7,2.5,4.6,3.5,8.8,3
		c4.9-0.5,7.1-4.2,7.2-11.6v-3.1h6.8h6.8v3.9c0,4.1-1.4,10.6-2.9,13.4s-5,6-8.7,7.6C526.4,1211,517.2,1211.4,511.5,1209.5
		L511.5,1209.5L511.5,1209.5z"/>
	<path id="path19991" inkscape:connector-curvature="0" class="st0" d="M439.7,1174.4v-35.8h7.6h7.6l9.3,21l9.3,21l0.2-21l0.2-21
		h6.1h6.1v35.8v35.8l-6.5-0.2l-6.5-0.2l-10.2-22.6l-10.2-22.6l-0.2,22.6l-0.2,22.6l-6.3,0.2l-6.3,0.2V1174.4L439.7,1174.4z"/>
	<path id="path19993" inkscape:connector-curvature="0" class="st0" d="M390.1,1174.4v-35.8h18.7h18.7v6.1v6.1h-11.9h-11.9v8.1v8.1
		h9h9v6.1v6.1h-9h-9v9.3v9.3h12.2h12.2v6.1v6.1h-19h-19L390.1,1174.4L390.1,1174.4z"/>
	<path id="path19995" inkscape:connector-curvature="0" class="st0" d="M364.3,1174.4v-35.8h6.8h6.8v35.8v35.8h-6.8h-6.8V1174.4z"/>
	<path id="path19997" inkscape:connector-curvature="0" class="st0" d="M322.1,1209.5c-11.7-4-14.4-12.1-13.7-40.2
		c0.4-17,1.5-21.3,6.3-25.9c4.7-4.4,11.9-6.2,20.7-5.2c11,1.2,17.8,9.2,17.9,20.6v3.1h-6.8h-6.8v-2.6c0-3.3-1.4-6.6-3.3-8
		c-2-1.4-8.8-1.4-10.8,0c-3,2.1-3.3,4.1-3.3,22.9c0,11.8,0.3,18.3,0.8,19.8c2,6,13.7,6,15.7,0c0.4-1.2,0.8-4.1,0.8-6.3v-4h6.8h6.8
		l-0.3,6c-0.3,7.1-2.2,11.9-6.2,15.8C341.8,1210.6,330.5,1212.4,322.1,1209.5L322.1,1209.5L322.1,1209.5z"/>
	<path id="path19999" inkscape:connector-curvature="0" class="st0" d="M268.6,1209.9c-4.2-1.3-6.3-2.7-9.6-6.2
		c-3.1-3.3-6-8.7-6.4-11.6c-0.2-1.4,0.2-1.6,6.4-3l6.6-1.4l0.6,2.3c0.4,1.3,1.2,3.3,1.9,4.4c3.7,5.9,12.4,6.3,15.1,0.6
		c3.1-6.5,0.2-10.1-15.1-18.9c-10.5-6-14.7-12.1-14-20.5c0.6-7.4,4-12.7,10-15.8c4.8-2.4,13.4-2.8,19.3-1s12.2,8.6,13.4,14.2l0.4,2
		l-5,1.4c-2.8,0.8-5.5,1.6-6.1,1.7c-0.8,0.2-1.4-0.4-2.3-2.5c-2.6-5.8-6-7.4-12.2-6c-1.8,0.4-3.4,3.4-3.5,6.4c-0.2,4,1,5,14.4,12.8
		c7,4,11.4,8,13.6,12.1c1.3,2.4,1.5,3.7,1.5,9.3c0,5.8-0.2,6.8-1.7,9.7c-2.6,5-6.6,8-13.1,9.7C278.8,1211,272,1211,268.6,1209.9
		L268.6,1209.9L268.6,1209.9z"/>
</g>
</svg>
